<?xml version="1.0" encoding="UTF-8" standalone="no" ?>
<!DOCTYPE svg PUBLIC "-//W3C//DTD SVG 1.1//EN" "http://www.w3.org/Graphics/SVG/1.1/DTD/svg11.dtd">
<svg xmlns="http://www.w3.org/2000/svg" xmlns:xlink="http://www.w3.org/1999/xlink" version="1.1" width="24" height="24" viewBox="0 0 24 24" xml:space="preserve">
<desc>Created with Fabric.js 5.3.0</desc>
<defs>
</defs>
<g transform="matrix(1.3222485852 0 0 1.3222485852 12 12)" id="7KMHMu0HdlZI0VLYrcNSi"  >
<path style="stroke: none; stroke-width: 1; stroke-dasharray: none; stroke-linecap: butt; stroke-dashoffset: 0; stroke-linejoin: miter; stroke-miterlimit: 4; fill: rgb(255,255,255); fill-rule: nonzero; opacity: 1;"  transform=" translate(-12, -12)" d="M 20 3 L 4 3 C 3.4477152501692068 3 3 3.4477152501692068 3 4 L 3 20 C 3 20.552284749830793 3.4477152501692068 21 4 21 L 20 21 C 20.552284749830793 21 21 20.552284749830793 21 20 L 21 4 C 21 3.4477152501692068 20.552284749830793 3 20 3 z M 8.339 18.337 L 5.667 18.337 L 5.667 9.747 L 8.339 9.747 L 8.339 18.337 z M 7.003 8.574 C 6.148063207261932 8.574 5.455 7.880936792738068 5.455 7.026 C 5.455 6.171063207261931 6.148063207261932 5.478 7.003 5.478 C 7.8579367927380686 5.478 8.551 6.171063207261931 8.551 7.026 C 8.551 7.880936792738067 7.8579367927380686 8.574 7.003000000000001 8.574 z M 18.338 18.337 L 15.669 18.337 L 15.669 14.16 C 15.669 13.164 15.651 11.883 14.281 11.883 C 12.891 11.883 12.68 12.969 12.68 14.09 L 12.68 18.338 L 10.013 18.338 L 10.013 9.748000000000001 L 12.573 9.748000000000001 L 12.573 10.922 L 12.610000000000001 10.922 C 12.965000000000002 10.247 13.837000000000002 9.535 15.134 9.535 C 17.838 9.535 18.337 11.313 18.337 13.626999999999999 L 18.337 18.337 z" stroke-linecap="round" />
</g>
</svg>